{"glyphs":{"0":{"ha":1389,"x_min":174,"x_max":1215,"o":"m 347 1042 l 1042 1042 l 1042 868 l 1215 868 l 1215 174 l 1042 174 l 1042 0 l 347 0 l 347 174 l 174 174 l 174 868 l 347 868 l 347 1042 m 521 868 l 521 521 l 694 521 l 694 347 l 521 347 l 521 174 l 868 174 l 868 521 l 694 521 l 694 694 l 868 694 l 868 868 l 521 868 z "},"1":{"ha":1389,"x_min":347,"x_max":1042,"o":"m 521 1042 l 868 1042 l 868 174 l 1042 174 l 1042 0 l 347 0 l 347 174 l 521 174 l 521 694 l 347 694 l 347 868 l 521 868 l 521 1042 z "},"2":{"ha":1389,"x_min":174,"x_max":1215,"o":"m 347 1042 l 1042 1042 l 1042 868 l 1215 868 l 1215 521 l 1042 521 l 1042 347 l 521 347 l 521 174 l 1215 174 l 1215 0 l 174 0 l 174 347 l 347 347 l 347 521 l 868 521 l 868 868 l 521 868 l 521 694 l 174 694 l 174 868 l 347 868 l 347 1042 z "},"3":{"ha":1389,"x_min":174,"x_max":1215,"o":"m 347 1042 l 1042 1042 l 1042 868 l 1215 868 l 1215 694 l 1042 694 l 1042 521 l 1215 521 l 1215 174 l 1042 174 l 1042 0 l 347 0 l 347 174 l 174 174 l 174 347 l 521 347 l 521 174 l 868 174 l 868 521 l 694 521 l 694 694 l 868 694 l 868 868 l 521 868 l 521 694 l 174 694 l 174 868 l 347 868 l 347 1042 z "},"4":{"ha":1389,"x_min":174,"x_max":1215,"o":"m 174 1042 l 521 1042 l 521 521 l 694 521 l 694 868 l 1042 868 l 1042 521 l 1215 521 l 1215 347 l 1042 347 l 1042 0 l 694 0 l 694 347 l 174 347 l 174 1042 z "},"5":{"ha":1389,"x_min":174,"x_max":1215,"o":"m 174 1042 l 1215 1042 l 1215 868 l 347 868 l 347 694 l 1042 694 l 1042 521 l 1215 521 l 1215 174 l 1042 174 l 1042 0 l 347 0 l 347 174 l 174 174 l 174 347 l 521 347 l 521 174 l 868 174 l 868 521 l 174 521 l 174 1042 z "},"6":{"ha":1389,"x_min":174,"x_max":1215,"o":"m 347 1042 l 1042 1042 l 1042 868 l 521 868 l 521 694 l 1042 694 l 1042 521 l 1215 521 l 1215 174 l 1042 174 l 1042 0 l 347 0 l 347 174 l 174 174 l 174 868 l 347 868 l 347 1042 m 521 521 l 521 174 l 868 174 l 868 521 l 521 521 z "},"7":{"ha":1389,"x_min":174,"x_max":1215,"o":"m 174 1042 l 1215 1042 l 1215 868 l 1042 868 l 1042 521 l 868 521 l 868 0 l 521 0 l 521 521 l 694 521 l 694 868 l 174 868 l 174 1042 z "},"8":{"ha":1389,"x_min":174,"x_max":1215,"o":"m 347 1042 l 1042 1042 l 1042 868 l 1215 868 l 1215 694 l 1042 694 l 1042 521 l 1215 521 l 1215 174 l 1042 174 l 1042 0 l 347 0 l 347 174 l 174 174 l 174 521 l 347 521 l 347 694 l 174 694 l 174 868 l 347 868 l 347 1042 m 521 868 l 521 694 l 868 694 l 868 868 l 521 868 m 521 521 l 521 174 l 868 174 l 868 521 l 521 521 z "},"9":{"ha":1389,"x_min":174,"x_max":1215,"o":"m 347 1042 l 1042 1042 l 1042 868 l 1215 868 l 1215 174 l 1042 174 l 1042 0 l 347 0 l 347 174 l 868 174 l 868 347 l 347 347 l 347 521 l 174 521 l 174 868 l 347 868 l 347 1042 m 521 868 l 521 521 l 868 521 l 868 868 l 521 868 z "},"\u0000":{"ha":0,"x_min":0,"x_max":0,"o":""},"\f":{"ha":1389,"x_min":0,"x_max":0,"o":""}," ":{"ha":1389,"x_min":0,"x_max":0,"o":""},"!":{"ha":1389,"x_min":521,"x_max":868,"o":"m 521 1042 l 868 1042 l 868 347 l 521 347 l 521 1042 m 521 174 l 868 174 l 868 0 l 521 0 l 521 174 z "},"\"":{"ha":1389,"x_min":347,"x_max":1042,"o":"m 347 1042 l 521 1042 l 521 521 l 347 521 l 347 1042 m 868 1042 l 1042 1042 l 1042 521 l 868 521 l 868 1042 z "},"#":{"ha":1389,"x_min":174,"x_max":1215,"o":"m 347 1042 l 521 1042 l 521 868 l 868 868 l 868 1042 l 1042 1042 l 1042 868 l 1215 868 l 1215 694 l 1042 694 l 1042 521 l 1215 521 l 1215 347 l 1042 347 l 1042 174 l 868 174 l 868 347 l 521 347 l 521 174 l 347 174 l 347 347 l 174 347 l 174 521 l 347 521 l 347 694 l 174 694 l 174 868 l 347 868 l 347 1042 m 521 694 l 521 521 l 868 521 l 868 694 l 521 694 z "},"$":{"ha":1389,"x_min":174,"x_max":1215,"o":"m 521 1215 l 868 1215 l 868 1042 l 1215 1042 l 1215 868 l 347 868 l 347 694 l 1042 694 l 1042 521 l 1215 521 l 1215 347 l 1042 347 l 1042 174 l 868 174 l 868 0 l 521 0 l 521 174 l 174 174 l 174 347 l 1042 347 l 1042 521 l 347 521 l 347 694 l 174 694 l 174 868 l 347 868 l 347 1042 l 521 1042 l 521 1215 z "},"%":{"ha":1389,"x_min":0,"x_max":1215,"o":"m 174 1215 l 521 1215 l 521 868 l 174 868 l 174 1215 m 1042 1215 l 1215 1215 l 1215 868 l 1042 868 l 1042 694 l 868 694 l 868 521 l 694 521 l 694 347 l 521 347 l 521 174 l 347 174 l 347 0 l 0 0 l 0 174 l 174 174 l 174 347 l 347 347 l 347 521 l 521 521 l 521 694 l 694 694 l 694 868 l 868 868 l 868 1042 l 1042 1042 l 1042 1215 m 868 347 l 1215 347 l 1215 0 l 868 0 l 868 347 z "},"&":{"ha":1389,"x_min":0,"x_max":1389,"o":"m 347 1042 l 868 1042 l 868 868 l 1042 868 l 1042 694 l 1389 694 l 1389 521 l 1215 521 l 1215 174 l 1389 174 l 1389 0 l 1042 0 l 1042 174 l 868 174 l 868 0 l 174 0 l 174 174 l 0 174 l 0 347 l 174 347 l 174 521 l 347 521 l 347 694 l 174 694 l 174 868 l 347 868 l 347 1042 m 521 868 l 521 694 l 694 694 l 694 868 l 521 868 m 868 694 l 868 521 l 1042 521 l 1042 694 l 868 694 m 521 521 l 521 347 l 347 347 l 347 174 l 868 174 l 868 347 l 694 347 l 694 521 l 521 521 z "},"'":{"ha":1389,"x_min":521,"x_max":1042,"o":"m 694 1042 l 1042 1042 l 1042 694 l 868 694 l 868 521 l 521 521 l 521 694 l 694 694 l 694 1042 z "},"(":{"ha":1389,"x_min":521,"x_max":1042,"o":"m 694 1042 l 1042 1042 l 1042 868 l 868 868 l 868 174 l 1042 174 l 1042 0 l 694 0 l 694 174 l 521 174 l 521 868 l 694 868 l 694 1042 z "},")":{"ha":1389,"x_min":521,"x_max":1042,"o":"m 521 1042 l 868 1042 l 868 868 l 1042 868 l 1042 174 l 868 174 l 868 0 l 521 0 l 521 174 l 694 174 l 694 868 l 521 868 l 521 1042 z "},"*":{"ha":1389,"x_min":174,"x_max":1042,"o":"m 174 1042 l 521 1042 l 521 868 l 694 868 l 694 1042 l 1042 1042 l 1042 694 l 868 694 l 868 521 l 1042 521 l 1042 174 l 694 174 l 694 347 l 521 347 l 521 174 l 174 174 l 174 521 l 347 521 l 347 694 l 174 694 l 174 1042 z "},"+":{"ha":1389,"x_min":174,"x_max":1215,"o":"m 521 1042 l 868 1042 l 868 694 l 1215 694 l 1215 521 l 868 521 l 868 174 l 521 174 l 521 521 l 174 521 l 174 694 l 521 694 l 521 1042 z "},",":{"ha":1389,"x_min":521,"x_max":1042,"o":"m 694 521 l 1042 521 l 1042 174 l 868 174 l 868 0 l 521 0 l 521 174 l 694 174 l 694 521 z "},"-":{"ha":1389,"x_min":174,"x_max":1215,"o":"m 174 694 l 1215 694 l 1215 521 l 174 521 l 174 694 z "},".":{"ha":1389,"x_min":521,"x_max":868,"o":"m 521 347 l 868 347 l 868 0 l 521 0 l 521 347 z "},"/":{"ha":1389,"x_min":174,"x_max":1042,"o":"m 694 1042 l 1042 1042 l 1042 868 l 868 868 l 868 694 l 694 694 l 694 521 l 521 521 l 521 347 l 347 347 l 347 174 l 174 174 l 174 521 l 347 521 l 347 694 l 521 694 l 521 868 l 694 868 l 694 1042 z "},":":{"ha":1389,"x_min":521,"x_max":868,"o":"m 521 1042 l 868 1042 l 868 694 l 521 694 l 521 1042 m 521 521 l 868 521 l 868 174 l 521 174 l 521 521 z "},";":{"ha":1389,"x_min":521,"x_max":868,"o":"m 521 1042 l 868 1042 l 868 694 l 521 694 l 521 1042 m 521 521 l 868 521 l 868 174 l 694 174 l 694 0 l 521 0 l 521 521 z "},"<":{"ha":1389,"x_min":347,"x_max":1042,"o":"m 694 1042 l 1042 1042 l 1042 868 l 868 868 l 868 694 l 694 694 l 694 521 l 868 521 l 868 347 l 1042 347 l 1042 174 l 694 174 l 694 347 l 521 347 l 521 521 l 347 521 l 347 694 l 521 694 l 521 868 l 694 868 l 694 1042 z "},"=":{"ha":1389,"x_min":347,"x_max":1215,"o":"m 347 1042 l 1215 1042 l 1215 694 l 347 694 l 347 1042 m 347 521 l 1215 521 l 1215 174 l 347 174 l 347 521 z "},">":{"ha":1389,"x_min":347,"x_max":1042,"o":"m 347 1042 l 694 1042 l 694 868 l 868 868 l 868 694 l 1042 694 l 1042 521 l 868 521 l 868 347 l 694 347 l 694 174 l 347 174 l 347 347 l 521 347 l 521 521 l 694 521 l 694 694 l 521 694 l 521 868 l 347 868 l 347 1042 z "},"?":{"ha":1389,"x_min":174,"x_max":1215,"o":"m 347 1042 l 1042 1042 l 1042 868 l 1215 868 l 1215 521 l 1042 521 l 1042 347 l 521 347 l 521 521 l 868 521 l 868 868 l 521 868 l 521 694 l 174 694 l 174 868 l 347 868 l 347 1042 m 521 174 l 868 174 l 868 0 l 521 0 l 521 174 z "},"@":{"ha":1389,"x_min":174,"x_max":1215,"o":"m 347 1042 l 1042 1042 l 1042 868 l 1215 868 l 1215 521 l 1042 521 l 1042 347 l 694 347 l 694 694 l 868 694 l 868 868 l 521 868 l 521 174 l 1215 174 l 1215 0 l 347 0 l 347 174 l 174 174 l 174 868 l 347 868 l 347 1042 z "},"A":{"ha":1389,"x_min":174,"x_max":1215,"o":"m 347 1042 l 1042 1042 l 1042 868 l 1215 868 l 1215 0 l 868 0 l 868 347 l 521 347 l 521 0 l 174 0 l 174 868 l 347 868 l 347 1042 m 521 868 l 521 521 l 868 521 l 868 868 l 521 868 z "},"B":{"ha":1389,"x_min":174,"x_max":1215,"o":"m 174 1042 l 1042 1042 l 1042 868 l 1215 868 l 1215 694 l 1042 694 l 1042 521 l 1215 521 l 1215 174 l 1042 174 l 1042 0 l 174 0 l 174 1042 m 521 868 l 521 694 l 868 694 l 868 868 l 521 868 m 521 521 l 521 174 l 868 174 l 868 521 l 521 521 z "},"C":{"ha":1389,"x_min":174,"x_max":1215,"o":"m 347 1042 l 1042 1042 l 1042 868 l 1215 868 l 1215 694 l 868 694 l 868 868 l 521 868 l 521 174 l 868 174 l 868 347 l 1215 347 l 1215 174 l 1042 174 l 1042 0 l 347 0 l 347 174 l 174 174 l 174 868 l 347 868 l 347 1042 z "},"D":{"ha":1389,"x_min":174,"x_max":1215,"o":"m 174 1042 l 1042 1042 l 1042 868 l 1215 868 l 1215 174 l 1042 174 l 1042 0 l 174 0 l 174 1042 m 521 868 l 521 174 l 868 174 l 868 868 l 521 868 z "},"E":{"ha":1389,"x_min":174,"x_max":1215,"o":"m 174 1042 l 1215 1042 l 1215 868 l 521 868 l 521 694 l 868 694 l 868 521 l 521 521 l 521 174 l 1215 174 l 1215 0 l 174 0 l 174 1042 z "},"F":{"ha":1389,"x_min":174,"x_max":1215,"o":"m 174 1042 l 1215 1042 l 1215 868 l 521 868 l 521 694 l 868 694 l 868 521 l 521 521 l 521 0 l 174 0 l 174 1042 z "},"G":{"ha":1389,"x_min":174,"x_max":1215,"o":"m 347 1042 l 1042 1042 l 1042 868 l 1215 868 l 1215 694 l 868 694 l 868 868 l 521 868 l 521 174 l 868 174 l 868 347 l 694 347 l 694 521 l 1215 521 l 1215 174 l 1042 174 l 1042 0 l 347 0 l 347 174 l 174 174 l 174 868 l 347 868 l 347 1042 z "},"H":{"ha":1389,"x_min":174,"x_max":1215,"o":"m 174 1042 l 521 1042 l 521 694 l 868 694 l 868 1042 l 1215 1042 l 1215 0 l 868 0 l 868 521 l 521 521 l 521 0 l 174 0 l 174 1042 z "},"I":{"ha":1389,"x_min":347,"x_max":1042,"o":"m 347 1042 l 1042 1042 l 1042 868 l 868 868 l 868 174 l 1042 174 l 1042 0 l 347 0 l 347 174 l 521 174 l 521 868 l 347 868 l 347 1042 z "},"J":{"ha":1389,"x_min":174,"x_max":1215,"o":"m 347 1042 l 1215 1042 l 1215 868 l 1042 868 l 1042 174 l 868 174 l 868 0 l 347 0 l 347 174 l 174 174 l 174 347 l 521 347 l 521 174 l 694 174 l 694 868 l 347 868 l 347 1042 z "},"K":{"ha":1389,"x_min":174,"x_max":1215,"o":"m 174 1042 l 521 1042 l 521 694 l 694 694 l 694 868 l 868 868 l 868 1042 l 1215 1042 l 1215 868 l 1042 868 l 1042 694 l 868 694 l 868 347 l 1042 347 l 1042 174 l 1215 174 l 1215 0 l 868 0 l 868 174 l 694 174 l 694 347 l 521 347 l 521 0 l 174 0 l 174 1042 z "},"L":{"ha":1389,"x_min":174,"x_max":1042,"o":"m 174 1042 l 521 1042 l 521 174 l 1042 174 l 1042 0 l 174 0 l 174 1042 z "},"M":{"ha":1389,"x_min":174,"x_max":1389,"o":"m 174 1042 l 521 1042 l 521 868 l 694 868 l 694 694 l 868 694 l 868 868 l 1042 868 l 1042 1042 l 1389 1042 l 1389 0 l 1042 0 l 1042 521 l 868 521 l 868 347 l 694 347 l 694 521 l 521 521 l 521 0 l 174 0 l 174 1042 z "},"N":{"ha":1389,"x_min":174,"x_max":1215,"o":"m 174 1042 l 521 1042 l 521 868 l 694 868 l 694 694 l 868 694 l 868 1042 l 1215 1042 l 1215 0 l 868 0 l 868 174 l 694 174 l 694 347 l 521 347 l 521 0 l 174 0 l 174 1042 z "},"O":{"ha":1389,"x_min":174,"x_max":1215,"o":"m 347 1042 l 1042 1042 l 1042 868 l 1215 868 l 1215 174 l 1042 174 l 1042 0 l 347 0 l 347 174 l 174 174 l 174 868 l 347 868 l 347 1042 m 521 868 l 521 174 l 868 174 l 868 868 l 521 868 z "},"P":{"ha":1389,"x_min":174,"x_max":1215,"o":"m 174 1042 l 1042 1042 l 1042 868 l 1215 868 l 1215 521 l 1042 521 l 1042 347 l 521 347 l 521 0 l 174 0 l 174 1042 m 521 868 l 521 521 l 868 521 l 868 868 l 521 868 z "},"Q":{"ha":1389,"x_min":174,"x_max":1215,"o":"m 347 1042 l 1042 1042 l 1042 868 l 1215 868 l 1215 347 l 1042 347 l 1042 174 l 1215 174 l 1215 0 l 1042 0 l 1042 174 l 868 174 l 868 0 l 347 0 l 347 174 l 174 174 l 174 868 l 347 868 l 347 1042 m 521 868 l 521 174 l 694 174 l 694 347 l 868 347 l 868 868 l 521 868 z "},"R":{"ha":1389,"x_min":174,"x_max":1215,"o":"m 174 1042 l 1042 1042 l 1042 868 l 1215 868 l 1215 521 l 1042 521 l 1042 347 l 1215 347 l 1215 0 l 868 0 l 868 347 l 521 347 l 521 0 l 174 0 l 174 1042 m 521 868 l 521 521 l 868 521 l 868 868 l 521 868 z "},"S":{"ha":1389,"x_min":174,"x_max":1215,"o":"m 347 1042 l 1042 1042 l 1042 868 l 1215 868 l 1215 694 l 1042 694 l 1042 521 l 1215 521 l 1215 174 l 1042 174 l 1042 0 l 347 0 l 347 174 l 174 174 l 174 347 l 521 347 l 521 174 l 868 174 l 868 521 l 347 521 l 347 694 l 174 694 l 174 868 l 347 868 l 347 1042 m 521 868 l 521 694 l 1042 694 l 1042 868 l 521 868 z "},"T":{"ha":1389,"x_min":174,"x_max":1215,"o":"m 174 1042 l 1215 1042 l 1215 868 l 868 868 l 868 0 l 521 0 l 521 868 l 174 868 l 174 1042 z "},"U":{"ha":1389,"x_min":174,"x_max":1215,"o":"m 174 1042 l 521 1042 l 521 174 l 868 174 l 868 1042 l 1215 1042 l 1215 174 l 1042 174 l 1042 0 l 347 0 l 347 174 l 174 174 l 174 1042 z "},"V":{"ha":1389,"x_min":174,"x_max":1215,"o":"m 174 1042 l 521 1042 l 521 347 l 868 347 l 868 1042 l 1215 1042 l 1215 347 l 1042 347 l 1042 174 l 868 174 l 868 0 l 521 0 l 521 174 l 347 174 l 347 347 l 174 347 l 174 1042 z "},"W":{"ha":1389,"x_min":174,"x_max":1389,"o":"m 174 1042 l 521 1042 l 521 521 l 694 521 l 694 694 l 868 694 l 868 521 l 1042 521 l 1042 1042 l 1389 1042 l 1389 0 l 1042 0 l 1042 174 l 868 174 l 868 347 l 694 347 l 694 174 l 521 174 l 521 0 l 174 0 l 174 1042 z "},"X":{"ha":1389,"x_min":174,"x_max":1215,"o":"m 174 1042 l 521 1042 l 521 868 l 868 868 l 868 1042 l 1215 1042 l 1215 868 l 1042 868 l 1042 694 l 868 694 l 868 521 l 1042 521 l 1042 347 l 1215 347 l 1215 0 l 1042 0 l 1042 174 l 868 174 l 868 347 l 521 347 l 521 174 l 347 174 l 347 0 l 174 0 l 174 347 l 347 347 l 347 521 l 521 521 l 521 694 l 347 694 l 347 868 l 174 868 l 174 1042 z "},"Y":{"ha":1389,"x_min":174,"x_max":1215,"o":"m 174 1042 l 521 1042 l 521 694 l 868 694 l 868 1042 l 1215 1042 l 1215 694 l 1042 694 l 1042 521 l 868 521 l 868 0 l 521 0 l 521 521 l 347 521 l 347 694 l 174 694 l 174 1042 z "},"Z":{"ha":1389,"x_min":174,"x_max":1215,"o":"m 174 1042 l 1215 1042 l 1215 868 l 1042 868 l 1042 694 l 868 694 l 868 521 l 694 521 l 694 347 l 521 347 l 521 174 l 1215 174 l 1215 0 l 174 0 l 174 347 l 347 347 l 347 521 l 521 521 l 521 694 l 694 694 l 694 868 l 174 868 l 174 1042 z "},"[":{"ha":1389,"x_min":521,"x_max":1042,"o":"m 521 1042 l 1042 1042 l 1042 868 l 868 868 l 868 174 l 1042 174 l 1042 0 l 521 0 l 521 1042 z "},"\\":{"ha":1389,"x_min":174,"x_max":1042,"o":"m 174 1042 l 521 1042 l 521 868 l 694 868 l 694 694 l 868 694 l 868 521 l 1042 521 l 1042 174 l 868 174 l 868 347 l 694 347 l 694 521 l 521 521 l 521 694 l 347 694 l 347 868 l 174 868 l 174 1042 z "},"]":{"ha":1389,"x_min":521,"x_max":1042,"o":"m 521 1042 l 1042 1042 l 1042 0 l 521 0 l 521 174 l 694 174 l 694 868 l 521 868 l 521 1042 z "},"^":{"ha":1389,"x_min":347,"x_max":1215,"o":"m 521 1215 l 1042 1215 l 1042 1042 l 1215 1042 l 1215 868 l 868 868 l 868 1042 l 694 1042 l 694 868 l 347 868 l 347 1042 l 521 1042 l 521 1215 z "},"_":{"ha":1389,"x_min":174,"x_max":1215,"o":"m 174 174 l 1215 174 l 1215 0 l 174 0 l 174 174 z "},"`":{"ha":1389,"x_min":347,"x_max":868,"o":"m 347 1042 l 694 1042 l 694 694 l 868 694 l 868 521 l 521 521 l 521 694 l 347 694 l 347 1042 z "},"a":{"ha":1389,"x_min":174,"x_max":1389,"o":"m 347 868 l 1215 868 l 1215 174 l 1389 174 l 1389 0 l 1042 0 l 1042 174 l 868 174 l 868 0 l 347 0 l 347 174 l 174 174 l 174 694 l 347 694 l 347 868 m 521 694 l 521 174 l 868 174 l 868 694 l 521 694 z "},"b":{"ha":1389,"x_min":174,"x_max":1215,"o":"m 174 1215 l 521 1215 l 521 868 l 1042 868 l 1042 694 l 1215 694 l 1215 174 l 1042 174 l 1042 0 l 174 0 l 174 1215 m 521 694 l 521 174 l 868 174 l 868 694 l 521 694 z "},"c":{"ha":1389,"x_min":174,"x_max":1215,"o":"m 347 868 l 1042 868 l 1042 694 l 1215 694 l 1215 521 l 868 521 l 868 694 l 521 694 l 521 174 l 868 174 l 868 347 l 1215 347 l 1215 174 l 1042 174 l 1042 0 l 347 0 l 347 174 l 174 174 l 174 694 l 347 694 l 347 868 z "},"d":{"ha":1389,"x_min":174,"x_max":1215,"o":"m 868 1215 l 1215 1215 l 1215 0 l 347 0 l 347 174 l 174 174 l 174 694 l 347 694 l 347 868 l 868 868 l 868 1215 m 521 694 l 521 174 l 868 174 l 868 694 l 521 694 z "},"e":{"ha":1389,"x_min":174,"x_max":1215,"o":"m 347 868 l 1042 868 l 1042 694 l 1215 694 l 1215 521 l 1042 521 l 1042 347 l 521 347 l 521 174 l 1215 174 l 1215 0 l 347 0 l 347 174 l 174 174 l 174 694 l 347 694 l 347 868 m 521 694 l 521 521 l 868 521 l 868 694 l 521 694 z "},"f":{"ha":1389,"x_min":347,"x_max":1215,"o":"m 694 1042 l 1215 1042 l 1215 868 l 868 868 l 868 694 l 1042 694 l 1042 521 l 868 521 l 868 0 l 521 0 l 521 521 l 347 521 l 347 694 l 521 694 l 521 868 l 694 868 l 694 1042 z "},"g":{"ha":1389,"x_min":174,"x_max":1215,"o":"m 347 868 l 1215 868 l 1215 0 l 1042 0 l 1042 -174 l 347 -174 l 347 0 l 868 0 l 868 174 l 347 174 l 347 347 l 174 347 l 174 694 l 347 694 l 347 868 m 521 694 l 521 347 l 868 347 l 868 694 l 521 694 z "},"h":{"ha":1389,"x_min":174,"x_max":1215,"o":"m 174 1215 l 521 1215 l 521 868 l 1042 868 l 1042 694 l 1215 694 l 1215 0 l 868 0 l 868 694 l 521 694 l 521 0 l 174 0 l 174 1215 z "},"i":{"ha":1389,"x_min":521,"x_max":868,"o":"m 521 1215 l 868 1215 l 868 1042 l 521 1042 l 521 1215 m 521 868 l 868 868 l 868 0 l 521 0 l 521 868 z "},"j":{"ha":1389,"x_min":174,"x_max":1042,"o":"m 694 1215 l 1042 1215 l 1042 1042 l 694 1042 l 694 1215 m 694 868 l 1042 868 l 1042 0 l 868 0 l 868 -174 l 347 -174 l 347 0 l 174 0 l 174 174 l 521 174 l 521 0 l 694 0 l 694 868 z "},"k":{"ha":1389,"x_min":174,"x_max":1215,"o":"m 174 1215 l 521 1215 l 521 694 l 868 694 l 868 868 l 1215 868 l 1215 694 l 1042 694 l 1042 521 l 868 521 l 868 347 l 1042 347 l 1042 174 l 1215 174 l 1215 0 l 868 0 l 868 174 l 694 174 l 694 347 l 521 347 l 521 0 l 174 0 l 174 1215 z "},"l":{"ha":1389,"x_min":347,"x_max":1042,"o":"m 347 1215 l 694 1215 l 694 174 l 1042 174 l 1042 0 l 521 0 l 521 174 l 347 174 l 347 1215 z "},"m":{"ha":1389,"x_min":0,"x_max":1215,"o":"m 0 868 l 521 868 l 521 694 l 694 694 l 694 868 l 1042 868 l 1042 694 l 1215 694 l 1215 0 l 868 0 l 868 694 l 694 694 l 694 0 l 521 0 l 521 694 l 347 694 l 347 0 l 0 0 l 0 868 z "},"n":{"ha":1389,"x_min":174,"x_max":1215,"o":"m 174 868 l 1042 868 l 1042 694 l 1215 694 l 1215 0 l 868 0 l 868 694 l 521 694 l 521 0 l 174 0 l 174 868 z "},"o":{"ha":1389,"x_min":174,"x_max":1215,"o":"m 347 868 l 1042 868 l 1042 694 l 1215 694 l 1215 174 l 1042 174 l 1042 0 l 347 0 l 347 174 l 174 174 l 174 694 l 347 694 l 347 868 m 521 694 l 521 174 l 868 174 l 868 694 l 521 694 z "},"p":{"ha":1389,"x_min":174,"x_max":1215,"o":"m 174 868 l 1042 868 l 1042 694 l 1215 694 l 1215 347 l 1042 347 l 1042 174 l 521 174 l 521 -174 l 174 -174 l 174 868 m 521 694 l 521 347 l 868 347 l 868 694 l 521 694 z "},"q":{"ha":1389,"x_min":174,"x_max":1389,"o":"m 347 868 l 1215 868 l 1215 174 l 1389 174 l 1389 0 l 1215 0 l 1215 -174 l 868 -174 l 868 174 l 347 174 l 347 347 l 174 347 l 174 694 l 347 694 l 347 868 m 521 694 l 521 347 l 868 347 l 868 694 l 521 694 z "},"r":{"ha":1389,"x_min":174,"x_max":1215,"o":"m 174 868 l 521 868 l 521 694 l 694 694 l 694 868 l 1042 868 l 1042 694 l 1215 694 l 1215 521 l 868 521 l 868 694 l 694 694 l 694 521 l 521 521 l 521 0 l 174 0 l 174 868 z "},"s":{"ha":1389,"x_min":174,"x_max":1215,"o":"m 347 868 l 1042 868 l 1042 694 l 521 694 l 521 521 l 1042 521 l 1042 347 l 1215 347 l 1215 174 l 1042 174 l 1042 0 l 174 0 l 174 174 l 868 174 l 868 347 l 347 347 l 347 521 l 174 521 l 174 694 l 347 694 l 347 868 z "},"t":{"ha":1389,"x_min":174,"x_max":1215,"o":"m 347 1042 l 694 1042 l 694 868 l 1042 868 l 1042 694 l 694 694 l 694 174 l 868 174 l 868 347 l 1215 347 l 1215 174 l 1042 174 l 1042 0 l 521 0 l 521 174 l 347 174 l 347 694 l 174 694 l 174 868 l 347 868 l 347 1042 z "},"u":{"ha":1389,"x_min":174,"x_max":1389,"o":"m 174 868 l 521 868 l 521 174 l 868 174 l 868 868 l 1215 868 l 1215 174 l 1389 174 l 1389 0 l 1042 0 l 1042 174 l 868 174 l 868 0 l 347 0 l 347 174 l 174 174 l 174 868 z "},"v":{"ha":1389,"x_min":174,"x_max":1215,"o":"m 174 868 l 521 868 l 521 347 l 868 347 l 868 868 l 1215 868 l 1215 347 l 1042 347 l 1042 174 l 868 174 l 868 0 l 521 0 l 521 174 l 347 174 l 347 347 l 174 347 l 174 868 z "},"w":{"ha":1389,"x_min":174,"x_max":1389,"o":"m 174 868 l 521 868 l 521 174 l 694 174 l 694 868 l 868 868 l 868 174 l 1042 174 l 1042 868 l 1389 868 l 1389 0 l 868 0 l 868 174 l 694 174 l 694 0 l 347 0 l 347 174 l 174 174 l 174 868 z "},"x":{"ha":1389,"x_min":174,"x_max":1215,"o":"m 174 868 l 521 868 l 521 694 l 868 694 l 868 868 l 1215 868 l 1215 521 l 1042 521 l 1042 347 l 1215 347 l 1215 0 l 868 0 l 868 174 l 521 174 l 521 0 l 174 0 l 174 347 l 347 347 l 347 521 l 174 521 l 174 868 z "},"y":{"ha":1389,"x_min":174,"x_max":1215,"o":"m 174 868 l 521 868 l 521 347 l 868 347 l 868 868 l 1215 868 l 1215 0 l 1042 0 l 1042 -174 l 347 -174 l 347 0 l 868 0 l 868 174 l 347 174 l 347 347 l 174 347 l 174 868 z "},"z":{"ha":1389,"x_min":174,"x_max":1215,"o":"m 174 868 l 1215 868 l 1215 694 l 1042 694 l 1042 521 l 868 521 l 868 347 l 694 347 l 694 174 l 1215 174 l 1215 0 l 174 0 l 174 174 l 347 174 l 347 347 l 521 347 l 521 521 l 694 521 l 694 694 l 174 694 l 174 868 z "},"{":{"ha":1389,"x_min":174,"x_max":1042,"o":"m 694 1042 l 1042 1042 l 1042 868 l 868 868 l 868 694 l 694 694 l 694 521 l 868 521 l 868 174 l 1042 174 l 1042 0 l 694 0 l 694 174 l 521 174 l 521 521 l 174 521 l 174 694 l 521 694 l 521 868 l 694 868 l 694 1042 z "},"|":{"ha":1389,"x_min":521,"x_max":868,"o":"m 521 1042 l 868 1042 l 868 0 l 521 0 l 521 1042 z "},"}":{"ha":1389,"x_min":347,"x_max":1215,"o":"m 347 1042 l 694 1042 l 694 868 l 868 868 l 868 694 l 1215 694 l 1215 521 l 868 521 l 868 174 l 694 174 l 694 0 l 347 0 l 347 174 l 521 174 l 521 521 l 694 521 l 694 694 l 521 694 l 521 868 l 347 868 l 347 1042 z "},"~":{"ha":1389,"x_min":174,"x_max":1215,"o":"m 347 868 l 694 868 l 694 694 l 868 694 l 868 521 l 1042 521 l 1042 694 l 1215 694 l 1215 521 l 1042 521 l 1042 347 l 694 347 l 694 521 l 521 521 l 521 694 l 347 694 l 347 521 l 174 521 l 174 694 l 347 694 l 347 868 z "}," ":{"ha":1389,"x_min":0,"x_max":0,"o":""},"¡":{"ha":1389,"x_min":0,"x_max":0,"o":""},"¢":{"ha":1389,"x_min":0,"x_max":0,"o":""},"£":{"ha":1389,"x_min":0,"x_max":0,"o":""},"¤":{"ha":1389,"x_min":0,"x_max":0,"o":""},"¥":{"ha":1389,"x_min":0,"x_max":0,"o":""},"¦":{"ha":1389,"x_min":0,"x_max":0,"o":""},"§":{"ha":1389,"x_min":0,"x_max":0,"o":""},"¨":{"ha":1389,"x_min":0,"x_max":0,"o":""},"©":{"ha":1389,"x_min":0,"x_max":1215,"o":"m 347 1215 l 868 1215 l 868 1042 l 1042 1042 l 1042 868 l 1215 868 l 1215 347 l 1042 347 l 1042 174 l 868 174 l 868 0 l 347 0 l 347 174 l 174 174 l 174 347 l 0 347 l 0 868 l 174 868 l 174 1042 l 347 1042 l 347 1215 m 347 1042 l 347 868 l 174 868 l 174 347 l 347 347 l 347 174 l 868 174 l 868 347 l 1042 347 l 1042 868 l 868 868 l 868 1042 l 347 1042 m 347 868 l 868 868 l 868 694 l 521 694 l 521 521 l 868 521 l 868 347 l 347 347 l 347 868 z "},"ª":{"ha":1389,"x_min":0,"x_max":0,"o":""},"«":{"ha":1389,"x_min":0,"x_max":0,"o":""},"¬":{"ha":1389,"x_min":0,"x_max":0,"o":""},"­":{"ha":1389,"x_min":0,"x_max":0,"o":""},"®":{"ha":1389,"x_min":0,"x_max":0,"o":""},"¯":{"ha":1389,"x_min":0,"x_max":0,"o":""},"°":{"ha":1389,"x_min":0,"x_max":0,"o":""},"±":{"ha":1389,"x_min":0,"x_max":0,"o":""},"²":{"ha":1389,"x_min":0,"x_max":0,"o":""},"³":{"ha":1389,"x_min":0,"x_max":0,"o":""},"´":{"ha":1389,"x_min":0,"x_max":0,"o":""},"µ":{"ha":1389,"x_min":0,"x_max":0,"o":""},"¶":{"ha":1389,"x_min":0,"x_max":0,"o":""},"·":{"ha":1389,"x_min":0,"x_max":0,"o":""},"¸":{"ha":1389,"x_min":0,"x_max":0,"o":""},"¹":{"ha":1389,"x_min":0,"x_max":0,"o":""},"º":{"ha":1389,"x_min":0,"x_max":0,"o":""},"»":{"ha":1389,"x_min":0,"x_max":0,"o":""},"¼":{"ha":1389,"x_min":0,"x_max":0,"o":""},"½":{"ha":1389,"x_min":0,"x_max":0,"o":""},"¾":{"ha":1389,"x_min":0,"x_max":0,"o":""},"¿":{"ha":1389,"x_min":0,"x_max":0,"o":""},"À":{"ha":1389,"x_min":0,"x_max":0,"o":""},"Á":{"ha":1389,"x_min":0,"x_max":0,"o":""},"Â":{"ha":1389,"x_min":0,"x_max":0,"o":""},"Ã":{"ha":1389,"x_min":0,"x_max":0,"o":""},"Ä":{"ha":1389,"x_min":0,"x_max":0,"o":""},"Å":{"ha":1389,"x_min":0,"x_max":0,"o":""},"Æ":{"ha":1389,"x_min":0,"x_max":0,"o":""},"Ç":{"ha":1389,"x_min":0,"x_max":0,"o":""},"È":{"ha":1389,"x_min":0,"x_max":0,"o":""},"É":{"ha":1389,"x_min":0,"x_max":0,"o":""},"Ê":{"ha":1389,"x_min":0,"x_max":0,"o":""},"Ë":{"ha":1389,"x_min":0,"x_max":0,"o":""},"Ì":{"ha":1389,"x_min":0,"x_max":0,"o":""},"Í":{"ha":1389,"x_min":0,"x_max":0,"o":""},"Î":{"ha":1389,"x_min":0,"x_max":0,"o":""},"Ï":{"ha":1389,"x_min":0,"x_max":0,"o":""},"Ð":{"ha":1389,"x_min":0,"x_max":0,"o":""},"Ñ":{"ha":1389,"x_min":0,"x_max":0,"o":""},"Ò":{"ha":1389,"x_min":0,"x_max":0,"o":""},"Ó":{"ha":1389,"x_min":0,"x_max":0,"o":""},"Ô":{"ha":1389,"x_min":0,"x_max":0,"o":""},"Õ":{"ha":1389,"x_min":0,"x_max":0,"o":""},"Ö":{"ha":1389,"x_min":0,"x_max":0,"o":""},"×":{"ha":1389,"x_min":0,"x_max":0,"o":""},"Ø":{"ha":1389,"x_min":0,"x_max":0,"o":""},"Ù":{"ha":1389,"x_min":0,"x_max":0,"o":""},"Ú":{"ha":1389,"x_min":0,"x_max":0,"o":""},"Û":{"ha":1389,"x_min":0,"x_max":0,"o":""},"Ü":{"ha":1389,"x_min":0,"x_max":0,"o":""},"Ý":{"ha":1389,"x_min":0,"x_max":0,"o":""},"Þ":{"ha":1389,"x_min":0,"x_max":0,"o":""},"ß":{"ha":1389,"x_min":174,"x_max":1215,"o":"m 347 1042 l 868 1042 l 868 868 l 1042 868 l 1042 521 l 1215 521 l 1215 174 l 1042 174 l 1042 0 l 694 0 l 694 174 l 868 174 l 868 521 l 694 521 l 694 694 l 868 694 l 868 868 l 521 868 l 521 -174 l 174 -174 l 174 868 l 347 868 l 347 1042 z "},"à":{"ha":1389,"x_min":347,"x_max":1389,"o":"m 521 1215 l 868 1215 l 868 1042 l 1042 1042 l 1042 868 l 694 868 l 694 1042 l 521 1042 l 521 1215 m 521 694 l 1215 694 l 1215 174 l 1389 174 l 1389 0 l 1042 0 l 1042 174 l 868 174 l 868 0 l 521 0 l 521 174 l 347 174 l 347 521 l 521 521 l 521 694 m 694 521 l 694 174 l 868 174 l 868 521 l 694 521 z "},"á":{"ha":1389,"x_min":0,"x_max":0,"o":""},"â":{"ha":1389,"x_min":347,"x_max":1389,"o":"m 694 1215 l 1215 1215 l 1215 1042 l 1389 1042 l 1389 868 l 1042 868 l 1042 1042 l 868 1042 l 868 868 l 521 868 l 521 1042 l 694 1042 l 694 1215 m 521 694 l 1215 694 l 1215 174 l 1389 174 l 1389 0 l 1042 0 l 1042 174 l 868 174 l 868 0 l 521 0 l 521 174 l 347 174 l 347 521 l 521 521 l 521 694 m 694 521 l 694 174 l 868 174 l 868 521 l 694 521 z "},"ã":{"ha":1389,"x_min":0,"x_max":0,"o":""},"ä":{"ha":1389,"x_min":174,"x_max":1389,"o":"m 521 1215 l 694 1215 l 694 1042 l 521 1042 l 521 1215 m 868 1215 l 1042 1215 l 1042 1042 l 868 1042 l 868 1215 m 347 868 l 1215 868 l 1215 174 l 1389 174 l 1389 0 l 1042 0 l 1042 174 l 868 174 l 868 0 l 347 0 l 347 174 l 174 174 l 174 694 l 347 694 l 347 868 m 521 694 l 521 174 l 868 174 l 868 694 l 521 694 z "},"å":{"ha":1389,"x_min":0,"x_max":0,"o":""},"æ":{"ha":1389,"x_min":0,"x_max":0,"o":""},"ç":{"ha":1389,"x_min":174,"x_max":1042,"o":"m 347 868 l 1042 868 l 1042 694 l 521 694 l 521 347 l 1042 347 l 1042 174 l 868 174 l 868 -174 l 521 -174 l 521 0 l 694 0 l 694 174 l 347 174 l 347 347 l 174 347 l 174 694 l 347 694 l 347 868 z "},"è":{"ha":1389,"x_min":174,"x_max":1215,"o":"m 347 1215 l 694 1215 l 694 1042 l 868 1042 l 868 868 l 521 868 l 521 1042 l 347 1042 l 347 1215 m 347 694 l 868 694 l 868 521 l 1042 521 l 1042 347 l 694 347 l 694 174 l 1215 174 l 1215 0 l 347 0 l 347 174 l 174 174 l 174 521 l 347 521 l 347 694 m 521 521 l 521 347 l 694 347 l 694 521 l 521 521 z "},"é":{"ha":1389,"x_min":174,"x_max":1215,"o":"m 521 1215 l 868 1215 l 868 1042 l 694 1042 l 694 868 l 347 868 l 347 1042 l 521 1042 l 521 1215 m 347 694 l 868 694 l 868 521 l 1042 521 l 1042 347 l 694 347 l 694 174 l 1215 174 l 1215 0 l 347 0 l 347 174 l 174 174 l 174 521 l 347 521 l 347 694 m 521 521 l 521 347 l 694 347 l 694 521 l 521 521 z "},"ê":{"ha":1389,"x_min":174,"x_max":1215,"o":"m 347 1215 l 868 1215 l 868 1042 l 1042 1042 l 1042 868 l 694 868 l 694 1042 l 521 1042 l 521 868 l 174 868 l 174 1042 l 347 1042 l 347 1215 m 347 694 l 868 694 l 868 521 l 1042 521 l 1042 347 l 694 347 l 694 174 l 1215 174 l 1215 0 l 347 0 l 347 174 l 174 174 l 174 521 l 347 521 l 347 694 m 521 521 l 521 347 l 694 347 l 694 521 l 521 521 z "},"ë":{"ha":1389,"x_min":0,"x_max":0,"o":""},"ì":{"ha":1389,"x_min":0,"x_max":0,"o":""},"í":{"ha":1389,"x_min":0,"x_max":0,"o":""},"î":{"ha":1389,"x_min":347,"x_max":1215,"o":"m 521 1215 l 1042 1215 l 1042 1042 l 1215 1042 l 1215 868 l 868 868 l 868 1042 l 694 1042 l 694 868 l 347 868 l 347 1042 l 521 1042 l 521 1215 m 521 694 l 868 694 l 868 0 l 521 0 l 521 694 z "},"ï":{"ha":1389,"x_min":347,"x_max":1042,"o":"m 347 1215 l 521 1215 l 521 1042 l 347 1042 l 347 1215 m 868 1215 l 1042 1215 l 1042 1042 l 868 1042 l 868 1215 m 521 868 l 868 868 l 868 0 l 521 0 l 521 868 z "},"ð":{"ha":1389,"x_min":0,"x_max":0,"o":""},"ñ":{"ha":1389,"x_min":0,"x_max":0,"o":""},"ò":{"ha":1389,"x_min":0,"x_max":0,"o":""},"ó":{"ha":1389,"x_min":0,"x_max":0,"o":""},"ô":{"ha":1389,"x_min":174,"x_max":1215,"o":"m 521 1215 l 1042 1215 l 1042 1042 l 1215 1042 l 1215 868 l 868 868 l 868 1042 l 694 1042 l 694 868 l 347 868 l 347 1042 l 521 1042 l 521 1215 m 347 694 l 1042 694 l 1042 521 l 1215 521 l 1215 174 l 1042 174 l 1042 0 l 347 0 l 347 174 l 174 174 l 174 521 l 347 521 l 347 694 m 521 521 l 521 174 l 868 174 l 868 521 l 521 521 z "},"õ":{"ha":1389,"x_min":0,"x_max":0,"o":""},"ö":{"ha":1389,"x_min":174,"x_max":1215,"o":"m 347 1215 l 521 1215 l 521 1042 l 347 1042 l 347 1215 m 868 1215 l 1042 1215 l 1042 1042 l 868 1042 l 868 1215 m 347 868 l 1042 868 l 1042 694 l 1215 694 l 1215 174 l 1042 174 l 1042 0 l 347 0 l 347 174 l 174 174 l 174 694 l 347 694 l 347 868 m 521 694 l 521 174 l 868 174 l 868 694 l 521 694 z "},"÷":{"ha":1389,"x_min":0,"x_max":0,"o":""},"ø":{"ha":1389,"x_min":0,"x_max":0,"o":""},"ù":{"ha":1389,"x_min":174,"x_max":1389,"o":"m 347 1215 l 694 1215 l 694 1042 l 868 1042 l 868 868 l 521 868 l 521 1042 l 347 1042 l 347 1215 m 174 694 l 521 694 l 521 174 l 868 174 l 868 694 l 1215 694 l 1215 174 l 1389 174 l 1389 0 l 1042 0 l 1042 174 l 868 174 l 868 0 l 347 0 l 347 174 l 174 174 l 174 694 z "},"ú":{"ha":1389,"x_min":0,"x_max":0,"o":""},"û":{"ha":1389,"x_min":174,"x_max":1389,"o":"m 521 1215 l 1042 1215 l 1042 1042 l 1215 1042 l 1215 868 l 868 868 l 868 1042 l 694 1042 l 694 868 l 347 868 l 347 1042 l 521 1042 l 521 1215 m 174 694 l 521 694 l 521 174 l 868 174 l 868 694 l 1215 694 l 1215 174 l 1389 174 l 1389 0 l 1042 0 l 1042 174 l 868 174 l 868 0 l 347 0 l 347 174 l 174 174 l 174 694 z "},"ü":{"ha":1389,"x_min":174,"x_max":1215,"o":"m 347 1215 l 521 1215 l 521 1042 l 347 1042 l 347 1215 m 868 1215 l 1042 1215 l 1042 1042 l 868 1042 l 868 1215 m 174 868 l 521 868 l 521 174 l 868 174 l 868 868 l 1215 868 l 1215 0 l 347 0 l 347 174 l 174 174 l 174 868 z "},"ý":{"ha":1389,"x_min":0,"x_max":0,"o":""},"þ":{"ha":1389,"x_min":0,"x_max":0,"o":""},"ÿ":{"ha":1389,"x_min":0,"x_max":0,"o":""},"Œ":{"ha":1389,"x_min":0,"x_max":0,"o":""},"œ":{"ha":1389,"x_min":0,"x_max":0,"o":""},"Š":{"ha":1389,"x_min":0,"x_max":0,"o":""},"š":{"ha":1389,"x_min":0,"x_max":0,"o":""},"Ÿ":{"ha":1389,"x_min":0,"x_max":0,"o":""},"ƒ":{"ha":1389,"x_min":0,"x_max":0,"o":""},"ˆ":{"ha":1389,"x_min":0,"x_max":0,"o":""},"˜":{"ha":1389,"x_min":0,"x_max":0,"o":""},"–":{"ha":1389,"x_min":0,"x_max":0,"o":""},"—":{"ha":1389,"x_min":0,"x_max":0,"o":""},"‘":{"ha":1389,"x_min":0,"x_max":0,"o":""},"’":{"ha":1389,"x_min":0,"x_max":0,"o":""},"‚":{"ha":1389,"x_min":0,"x_max":0,"o":""},"“":{"ha":1389,"x_min":0,"x_max":0,"o":""},"”":{"ha":1389,"x_min":0,"x_max":0,"o":""},"„":{"ha":1389,"x_min":0,"x_max":0,"o":""},"†":{"ha":1389,"x_min":0,"x_max":0,"o":""},"‡":{"ha":1389,"x_min":0,"x_max":0,"o":""},"•":{"ha":1389,"x_min":0,"x_max":0,"o":""},"…":{"ha":1389,"x_min":0,"x_max":0,"o":""},"‰":{"ha":1389,"x_min":0,"x_max":0,"o":""},"‹":{"ha":1389,"x_min":0,"x_max":0,"o":""},"›":{"ha":1389,"x_min":0,"x_max":0,"o":""},"€":{"ha":1389,"x_min":0,"x_max":0,"o":""},"™":{"ha":1389,"x_min":0,"x_max":1389,"o":"m 0 1215 l 521 1215 l 521 1042 l 347 1042 l 347 694 l 174 694 l 174 1042 l 0 1042 l 0 1215 m 521 868 l 1389 868 l 1389 347 l 1215 347 l 1215 694 l 1042 694 l 1042 521 l 868 521 l 868 694 l 694 694 l 694 347 l 521 347 l 521 868 z "}}}
